<svg width="56" height="20" viewBox="0 0 56 20" fill="none" xmlns="http://www.w3.org/2000/svg">
<path d="M0 15V20H30C35.5228 20 40 15.5228 40 10C40 4.47715 35.5228 0 30 0H0V5H30C32.7614 5 35 7.23858 35 10C35 12.7614 32.7614 15 30 15H0Z" fill="#EAC346"/>
<path d="M56 15V20H26C20.4772 20 16 15.5228 16 10C16 4.47715 20.4772 0 26 0H56V5H26C23.2386 5 21 7.23858 21 10C21 12.7614 23.2386 15 26 15H56Z" fill="#EAC346"/>
<path d="M28.1328 12.9697C28.0483 13.012 27.9488 13.012 27.8642 12.9697L25.1653 11.6188C25.0041 11.5381 24.95 11.3343 25.0499 11.1842L27.7475 7.1334C27.8662 6.95511 28.1281 6.95512 28.2469 7.13341L30.9451 11.1852C31.0451 11.3353 30.9909 11.5391 30.8297 11.6198L28.1328 12.9697Z" fill="#EAC346"/>
</svg>
