<svg width="32" height="32" viewBox="0 0 32 32" fill="none" xmlns="http://www.w3.org/2000/svg">
<g filter="url(#filter0_dd_167_309)">
<path d="M19 12.3333H17.3333C17.1492 12.3333 17 12.4825 17 12.6666V19.3333C17 19.5173 17.1492 19.6666 17.3333 19.6666H19C19.1841 19.6666 19.3333 19.5173 19.3333 19.3333V12.6666C19.3333 12.4825 19.1841 12.3333 19 12.3333Z" stroke="#1DB954" stroke-linecap="round" stroke-linejoin="round"/>
<path d="M14.6666 12.3333H13C12.8159 12.3333 12.6666 12.4825 12.6666 12.6666V19.3333C12.6666 19.5173 12.8159 19.6666 13 19.6666H14.6666C14.8507 19.6666 15 19.5173 15 19.3333V12.6666C15 12.4825 14.8507 12.3333 14.6666 12.3333Z" stroke="#1DB954" stroke-linecap="round" stroke-linejoin="round"/>
</g>
<defs>
<filter id="filter0_dd_167_309" x="-2" y="-1" width="36" height="36" filterUnits="userSpaceOnUse" color-interpolation-filters="sRGB">
<feFlood flood-opacity="0" result="BackgroundImageFix"/>
<feColorMatrix in="SourceAlpha" type="matrix" values="0 0 0 0 0 0 0 0 0 0 0 0 0 0 0 0 0 0 127 0" result="hardAlpha"/>
<feOffset dy="1"/>
<feGaussianBlur stdDeviation="1"/>
<feComposite in2="hardAlpha" operator="out"/>
<feColorMatrix type="matrix" values="0 0 0 0 0.0666667 0 0 0 0 0.0666667 0 0 0 0 0.0666667 0 0 0 0.12 0"/>
<feBlend mode="normal" in2="BackgroundImageFix" result="effect1_dropShadow_167_309"/>
<feColorMatrix in="SourceAlpha" type="matrix" values="0 0 0 0 0 0 0 0 0 0 0 0 0 0 0 0 0 0 127 0" result="hardAlpha"/>
<feOffset dy="1"/>
<feGaussianBlur stdDeviation="0.5"/>
<feComposite in2="hardAlpha" operator="out"/>
<feColorMatrix type="matrix" values="0 0 0 0 0.0666667 0 0 0 0 0.0666667 0 0 0 0 0.0666667 0 0 0 0.12 0"/>
<feBlend mode="normal" in2="effect1_dropShadow_167_309" result="effect2_dropShadow_167_309"/>
<feBlend mode="normal" in="SourceGraphic" in2="effect2_dropShadow_167_309" result="shape"/>
</filter>
</defs>
</svg>
