<svg width="46" height="46" viewBox="0 0 46 46" fill="none" xmlns="http://www.w3.org/2000/svg">
<g filter="url(#filter0_ddd_143_335)">
<rect x="2" y="1" width="42" height="42" rx="21" fill="#1DB954"/>
<path d="M26.9375 17.1875H24.75C24.5084 17.1875 24.3125 17.3834 24.3125 17.625V26.375C24.3125 26.6166 24.5084 26.8125 24.75 26.8125H26.9375C27.1791 26.8125 27.375 26.6166 27.375 26.375V17.625C27.375 17.3834 27.1791 17.1875 26.9375 17.1875Z" stroke="#121212" stroke-width="1.5" stroke-linecap="round" stroke-linejoin="round"/>
<path d="M21.25 17.1875H19.0625C18.8209 17.1875 18.625 17.3834 18.625 17.625V26.375C18.625 26.6166 18.8209 26.8125 19.0625 26.8125H21.25C21.4916 26.8125 21.6875 26.6166 21.6875 26.375V17.625C21.6875 17.3834 21.4916 17.1875 21.25 17.1875Z" stroke="#121212" stroke-width="1.5" stroke-linecap="round" stroke-linejoin="round"/>
</g>
<defs>
<filter id="filter0_ddd_143_335" x="0" y="0" width="46" height="46" filterUnits="userSpaceOnUse" color-interpolation-filters="sRGB">
<feFlood flood-opacity="0" result="BackgroundImageFix"/>
<feColorMatrix in="SourceAlpha" type="matrix" values="0 0 0 0 0 0 0 0 0 0 0 0 0 0 0 0 0 0 127 0" result="hardAlpha"/>
<feOffset dy="1"/>
<feGaussianBlur stdDeviation="1"/>
<feComposite in2="hardAlpha" operator="out"/>
<feColorMatrix type="matrix" values="0 0 0 0 0.0666667 0 0 0 0 0.0666667 0 0 0 0 0.0666667 0 0 0 0.12 0"/>
<feBlend mode="normal" in2="BackgroundImageFix" result="effect1_dropShadow_143_335"/>
<feColorMatrix in="SourceAlpha" type="matrix" values="0 0 0 0 0 0 0 0 0 0 0 0 0 0 0 0 0 0 127 0" result="hardAlpha"/>
<feOffset dy="1"/>
<feGaussianBlur stdDeviation="0.5"/>
<feComposite in2="hardAlpha" operator="out"/>
<feColorMatrix type="matrix" values="0 0 0 0 0.0666667 0 0 0 0 0.0666667 0 0 0 0 0.0666667 0 0 0 0.12 0"/>
<feBlend mode="normal" in2="effect1_dropShadow_143_335" result="effect2_dropShadow_143_335"/>
<feColorMatrix in="SourceAlpha" type="matrix" values="0 0 0 0 0 0 0 0 0 0 0 0 0 0 0 0 0 0 127 0" result="hardAlpha"/>
<feMorphology radius="1" operator="dilate" in="SourceAlpha" result="effect3_dropShadow_143_335"/>
<feOffset/>
<feComposite in2="hardAlpha" operator="out"/>
<feColorMatrix type="matrix" values="0 0 0 0 0.211936 0 0 0 0 0.211936 0 0 0 0 0.211936 0 0 0 0.12 0"/>
<feBlend mode="normal" in2="effect2_dropShadow_143_335" result="effect3_dropShadow_143_335"/>
<feBlend mode="normal" in="SourceGraphic" in2="effect3_dropShadow_143_335" result="shape"/>
</filter>
</defs>
</svg>
