<svg width="32" height="32" viewBox="0 0 32 32" fill="none" xmlns="http://www.w3.org/2000/svg">
<g filter="url(#filter0_dd_167_285)">
<path d="M13.5 12.3272V19.6728C13.5011 19.7314 13.5176 19.7887 13.5479 19.8389C13.5782 19.8891 13.6212 19.9304 13.6725 19.9587C13.7239 19.9869 13.7818 20.0012 13.8404 19.9999C13.899 19.9987 13.9563 19.982 14.0064 19.9516L20.0115 16.2788C20.0595 16.2498 20.0992 16.2089 20.1267 16.16C20.1542 16.1112 20.1687 16.0561 20.1687 16C20.1687 15.9439 20.1542 15.8888 20.1267 15.84C20.0992 15.7911 20.0595 15.7502 20.0115 15.7212L14.0064 12.0484C13.9563 12.018 13.899 12.0013 13.8404 12.0001C13.7818 11.9988 13.7239 12.0131 13.6725 12.0413C13.6212 12.0696 13.5782 12.1109 13.5479 12.1611C13.5176 12.2113 13.5011 12.2686 13.5 12.3272Z" stroke="#1DB954" stroke-linecap="round" stroke-linejoin="round"/>
</g>
<defs>
<filter id="filter0_dd_167_285" x="-2" y="-1" width="36" height="36" filterUnits="userSpaceOnUse" color-interpolation-filters="sRGB">
<feFlood flood-opacity="0" result="BackgroundImageFix"/>
<feColorMatrix in="SourceAlpha" type="matrix" values="0 0 0 0 0 0 0 0 0 0 0 0 0 0 0 0 0 0 127 0" result="hardAlpha"/>
<feOffset dy="1"/>
<feGaussianBlur stdDeviation="1"/>
<feComposite in2="hardAlpha" operator="out"/>
<feColorMatrix type="matrix" values="0 0 0 0 0.0666667 0 0 0 0 0.0666667 0 0 0 0 0.0666667 0 0 0 0.12 0"/>
<feBlend mode="normal" in2="BackgroundImageFix" result="effect1_dropShadow_167_285"/>
<feColorMatrix in="SourceAlpha" type="matrix" values="0 0 0 0 0 0 0 0 0 0 0 0 0 0 0 0 0 0 127 0" result="hardAlpha"/>
<feOffset dy="1"/>
<feGaussianBlur stdDeviation="0.5"/>
<feComposite in2="hardAlpha" operator="out"/>
<feColorMatrix type="matrix" values="0 0 0 0 0.0666667 0 0 0 0 0.0666667 0 0 0 0 0.0666667 0 0 0 0.12 0"/>
<feBlend mode="normal" in2="effect1_dropShadow_167_285" result="effect2_dropShadow_167_285"/>
<feBlend mode="normal" in="SourceGraphic" in2="effect2_dropShadow_167_285" result="shape"/>
</filter>
</defs>
</svg>
