<svg width="16" height="18" viewBox="0 0 16 18" fill="none" xmlns="http://www.w3.org/2000/svg">
<path d="M1 1.65448V16.3455C1.00218 16.4628 1.03523 16.5773 1.09581 16.6777C1.1564 16.7781 1.24239 16.8607 1.3451 16.9173C1.44781 16.9739 1.56362 17.0023 1.68084 16.9999C1.79807 16.9974 1.91257 16.964 2.0128 16.9032L14.023 9.55767C14.119 9.4996 14.1983 9.41777 14.2534 9.32007C14.3084 9.22238 14.3374 9.11214 14.3374 9C14.3374 8.88786 14.3084 8.77762 14.2534 8.67993C14.1983 8.58223 14.119 8.5004 14.023 8.44233L2.0128 1.09681C1.91257 1.03597 1.79807 1.00263 1.68084 1.00015C1.56362 0.997671 1.44781 1.02614 1.3451 1.0827C1.24239 1.13925 1.1564 1.22189 1.09581 1.32228C1.03523 1.42266 1.00218 1.53725 1 1.65448Z" stroke="white" stroke-width="1.5" stroke-linecap="round" stroke-linejoin="round"/>
</svg>
